<svg width="177" height="21" viewBox="0 0 177 21" fill="none" xmlns="http://www.w3.org/2000/svg">
<path d="M1.66 20.605C1.45467 20.605 1.28667 20.5396 1.156 20.409C1.02533 20.2783 0.96 20.1103 0.96 19.905V1.70498C0.96 1.49965 1.02533 1.33165 1.156 1.20098C1.28667 1.07031 1.45467 1.00498 1.66 1.00498H10.2C11.8053 1.00498 13.1213 1.22898 14.148 1.67698C15.1747 2.12498 15.9307 2.76898 16.416 3.60898C16.92 4.43031 17.172 5.41031 17.172 6.54898C17.172 7.22098 17.0413 7.81831 16.78 8.34098C16.5373 8.84498 16.2293 9.26498 15.856 9.60098C15.5013 9.93698 15.1653 10.1796 14.848 10.329C15.5573 10.665 16.1827 11.2156 16.724 11.981C17.284 12.7463 17.564 13.6423 17.564 14.669C17.564 15.901 17.284 16.965 16.724 17.861C16.1827 18.7383 15.38 19.4196 14.316 19.905C13.2707 20.3716 11.9827 20.605 10.452 20.605H1.66ZM5.972 16.965H9.892C10.6947 16.965 11.3013 16.7316 11.712 16.265C12.1227 15.7983 12.328 15.2663 12.328 14.669C12.328 14.0156 12.1133 13.465 11.684 13.017C11.2733 12.569 10.676 12.345 9.892 12.345H5.972V16.965ZM5.972 8.78898H9.64C10.4053 8.78898 10.9747 8.59298 11.348 8.20098C11.74 7.80898 11.936 7.30498 11.936 6.68898C11.936 6.09165 11.74 5.60631 11.348 5.23298C10.9747 4.84098 10.4053 4.64498 9.64 4.64498H5.972V8.78898ZM20.9113 20.605C20.706 20.605 20.538 20.5396 20.4073 20.409C20.2766 20.2783 20.2113 20.1103 20.2113 19.905V6.74498C20.2113 6.55831 20.2766 6.39965 20.4073 6.26898C20.538 6.11965 20.706 6.04498 20.9113 6.04498H24.1313C24.3366 6.04498 24.5046 6.11965 24.6353 6.26898C24.766 6.39965 24.8313 6.55831 24.8313 6.74498V7.86498C25.3353 7.28631 25.9326 6.83831 26.6233 6.52098C27.3326 6.20365 28.126 6.04498 29.0033 6.04498H30.2353C30.422 6.04498 30.5806 6.11031 30.7113 6.24098C30.8606 6.37165 30.9353 6.53965 30.9353 6.74498V9.62898C30.9353 9.81565 30.8606 9.98365 30.7113 10.133C30.5806 10.2636 30.422 10.329 30.2353 10.329H27.5193C26.754 10.329 26.1566 10.5436 25.7273 10.973C25.3166 11.3836 25.1113 11.9716 25.1113 12.737V19.905C25.1113 20.1103 25.0366 20.2783 24.8873 20.409C24.7566 20.5396 24.5886 20.605 24.3833 20.605H20.9113ZM36.8925 20.885C35.8845 20.885 34.9791 20.6983 34.1765 20.325C33.3925 19.933 32.7671 19.4103 32.3005 18.757C31.8338 18.1036 31.6005 17.3663 31.6005 16.545C31.6005 15.2196 32.1418 14.1743 33.2245 13.409C34.3071 12.625 35.7445 12.093 37.5365 11.813L41.0365 11.281V10.889C41.0365 10.217 40.8965 9.70365 40.6165 9.34898C40.3365 8.99431 39.8231 8.81698 39.0765 8.81698C38.5538 8.81698 38.1245 8.91965 37.7885 9.12498C37.4711 9.33031 37.2191 9.61031 37.0325 9.96498C36.8645 10.2076 36.6311 10.329 36.3325 10.329H33.1965C32.9911 10.329 32.8325 10.273 32.7205 10.161C32.6085 10.0303 32.5618 9.88098 32.5805 9.71298C32.5805 9.37698 32.7018 8.99431 32.9445 8.56498C33.2058 8.11698 33.5978 7.67831 34.1205 7.24898C34.6431 6.81965 35.3151 6.46498 36.1365 6.18498C36.9578 5.90498 37.9471 5.76498 39.1045 5.76498C40.3178 5.76498 41.3538 5.90498 42.2125 6.18498C43.0711 6.46498 43.7618 6.85698 44.2845 7.36098C44.8258 7.86498 45.2271 8.46231 45.4885 9.15298C45.7498 9.82498 45.8805 10.5716 45.8805 11.393V19.905C45.8805 20.1103 45.8058 20.2783 45.6565 20.409C45.5258 20.5396 45.3671 20.605 45.1805 20.605H41.9325C41.7271 20.605 41.5591 20.5396 41.4285 20.409C41.2978 20.2783 41.2325 20.1103 41.2325 19.905V18.925C40.9898 19.2796 40.6631 19.6063 40.2525 19.905C39.8418 20.2036 39.3565 20.437 38.7965 20.605C38.2551 20.7916 37.6205 20.885 36.8925 20.885ZM38.2085 17.693C38.7498 17.693 39.2351 17.581 39.6645 17.357C40.1125 17.1143 40.4578 16.7503 40.7005 16.265C40.9618 15.761 41.0925 15.1356 41.0925 14.389V13.997L38.7125 14.417C37.8351 14.5663 37.1911 14.7996 36.7805 15.117C36.3885 15.4156 36.1925 15.7703 36.1925 16.181C36.1925 16.4983 36.2858 16.769 36.4725 16.993C36.6591 17.217 36.9018 17.3943 37.2005 17.525C37.4991 17.637 37.8351 17.693 38.2085 17.693ZM49.5846 20.605C49.3792 20.605 49.2112 20.5396 49.0806 20.409C48.9499 20.2783 48.8846 20.1103 48.8846 19.905V6.74498C48.8846 6.53965 48.9499 6.37165 49.0806 6.24098C49.2112 6.11031 49.3792 6.04498 49.5846 6.04498H52.8886C53.0752 6.04498 53.2339 6.11031 53.3646 6.24098C53.5139 6.37165 53.5886 6.53965 53.5886 6.74498V19.905C53.5886 20.1103 53.5139 20.2783 53.3646 20.409C53.2339 20.5396 53.0752 20.605 52.8886 20.605H49.5846ZM49.5566 3.94498C49.3512 3.94498 49.1832 3.87965 49.0526 3.74898C48.9219 3.61831 48.8566 3.45031 48.8566 3.24498V0.752979C48.8566 0.547646 48.9219 0.379646 49.0526 0.248979C49.1832 0.0996463 49.3512 0.0249801 49.5566 0.0249801H52.8886C53.0939 0.0249801 53.2619 0.0996463 53.3926 0.248979C53.5419 0.379646 53.6166 0.547646 53.6166 0.752979V3.24498C53.6166 3.45031 53.5419 3.61831 53.3926 3.74898C53.2619 3.87965 53.0939 3.94498 52.8886 3.94498H49.5566ZM58.2884 20.605C58.083 20.605 57.915 20.5396 57.7844 20.409C57.6537 20.2783 57.5884 20.1103 57.5884 19.905V6.74498C57.5884 6.53965 57.6537 6.37165 57.7844 6.24098C57.915 6.11031 58.083 6.04498 58.2884 6.04498H61.5084C61.7137 6.04498 61.8817 6.11031 62.0124 6.24098C62.143 6.37165 62.2084 6.53965 62.2084 6.74498V7.80898C62.6937 7.23031 63.3284 6.74498 64.1124 6.35298C64.8964 5.96098 65.8204 5.76498 66.8844 5.76498C67.967 5.76498 68.919 6.00765 69.7404 6.49298C70.5804 6.97831 71.2337 7.69698 71.7004 8.64898C72.1857 9.58231 72.4284 10.7303 72.4284 12.093V19.905C72.4284 20.1103 72.3537 20.2783 72.2044 20.409C72.0737 20.5396 71.915 20.605 71.7284 20.605H68.2004C68.0137 20.605 67.8457 20.5396 67.6964 20.409C67.5657 20.2783 67.5004 20.1103 67.5004 19.905V12.261C67.5004 11.3836 67.2857 10.7116 66.8564 10.245C66.4457 9.75965 65.8297 9.51698 65.0084 9.51698C64.243 9.51698 63.627 9.75965 63.1604 10.245C62.7124 10.7116 62.4884 11.3836 62.4884 12.261V19.905C62.4884 20.1103 62.4137 20.2783 62.2644 20.409C62.1337 20.5396 61.975 20.605 61.7884 20.605H58.2884ZM79.2116 20.605C78.9316 20.605 78.7262 20.5396 78.5956 20.409C78.4649 20.2783 78.3622 20.1103 78.2876 19.905L74.2556 6.94098C74.2182 6.84765 74.1996 6.75431 74.1996 6.66098C74.1996 6.49298 74.2649 6.35298 74.3956 6.24098C74.5262 6.11031 74.6756 6.04498 74.8436 6.04498H77.7276C77.9702 6.04498 78.1569 6.11031 78.2876 6.24098C78.4369 6.37165 78.5302 6.50231 78.5676 6.63298L80.9196 14.641L83.4396 6.66098C83.4769 6.53031 83.5609 6.39965 83.6916 6.26898C83.8409 6.11965 84.0462 6.04498 84.3076 6.04498H86.1556C86.4169 6.04498 86.6129 6.11965 86.7436 6.26898C86.8929 6.39965 86.9862 6.53031 87.0236 6.66098L89.5436 14.641L91.8956 6.63298C91.9329 6.50231 92.0169 6.37165 92.1476 6.24098C92.2969 6.11031 92.4929 6.04498 92.7356 6.04498H95.6196C95.7876 6.04498 95.9276 6.11031 96.0396 6.24098C96.1702 6.35298 96.2356 6.49298 96.2356 6.66098C96.2356 6.75431 96.2262 6.84765 96.2076 6.94098L92.1756 19.905C92.1196 20.1103 92.0169 20.2783 91.8676 20.409C91.7369 20.5396 91.5316 20.605 91.2516 20.605H88.7316C88.4702 20.605 88.2649 20.5396 88.1156 20.409C87.9662 20.2783 87.8636 20.1103 87.8076 19.905L85.2316 12.233L82.6556 19.905C82.5996 20.1103 82.4969 20.2783 82.3476 20.409C82.1982 20.5396 81.9929 20.605 81.7316 20.605H79.2116ZM102.333 20.885C101.325 20.885 100.419 20.6983 99.6168 20.325C98.8328 19.933 98.2074 19.4103 97.7408 18.757C97.2741 18.1036 97.0408 17.3663 97.0408 16.545C97.0408 15.2196 97.5821 14.1743 98.6648 13.409C99.7474 12.625 101.185 12.093 102.977 11.813L106.477 11.281V10.889C106.477 10.217 106.337 9.70365 106.057 9.34898C105.777 8.99431 105.263 8.81698 104.517 8.81698C103.994 8.81698 103.565 8.91965 103.229 9.12498C102.911 9.33031 102.659 9.61031 102.473 9.96498C102.305 10.2076 102.071 10.329 101.773 10.329H98.6368C98.4314 10.329 98.2728 10.273 98.1608 10.161C98.0488 10.0303 98.0021 9.88098 98.0208 9.71298C98.0208 9.37698 98.1421 8.99431 98.3848 8.56498C98.6461 8.11698 99.0381 7.67831 99.5608 7.24898C100.083 6.81965 100.755 6.46498 101.577 6.18498C102.398 5.90498 103.387 5.76498 104.545 5.76498C105.758 5.76498 106.794 5.90498 107.653 6.18498C108.511 6.46498 109.202 6.85698 109.725 7.36098C110.266 7.86498 110.667 8.46231 110.929 9.15298C111.19 9.82498 111.321 10.5716 111.321 11.393V19.905C111.321 20.1103 111.246 20.2783 111.097 20.409C110.966 20.5396 110.807 20.605 110.621 20.605H107.373C107.167 20.605 106.999 20.5396 106.869 20.409C106.738 20.2783 106.673 20.1103 106.673 19.905V18.925C106.43 19.2796 106.103 19.6063 105.693 19.905C105.282 20.2036 104.797 20.437 104.237 20.605C103.695 20.7916 103.061 20.885 102.333 20.885ZM103.649 17.693C104.19 17.693 104.675 17.581 105.105 17.357C105.553 17.1143 105.898 16.7503 106.141 16.265C106.402 15.761 106.533 15.1356 106.533 14.389V13.997L104.153 14.417C103.275 14.5663 102.631 14.7996 102.221 15.117C101.829 15.4156 101.633 15.7703 101.633 16.181C101.633 16.4983 101.726 16.769 101.913 16.993C102.099 17.217 102.342 17.3943 102.641 17.525C102.939 17.637 103.275 17.693 103.649 17.693ZM119.095 20.605C118.815 20.605 118.609 20.5396 118.479 20.409C118.348 20.2596 118.236 20.0916 118.143 19.905L112.851 6.91298C112.813 6.83831 112.795 6.75431 112.795 6.66098C112.795 6.49298 112.851 6.35298 112.963 6.24098C113.093 6.11031 113.252 6.04498 113.439 6.04498H116.603C116.845 6.04498 117.032 6.11031 117.163 6.24098C117.293 6.37165 117.377 6.50231 117.415 6.63298L120.579 15.229L123.771 6.63298C123.808 6.50231 123.892 6.37165 124.023 6.24098C124.153 6.11031 124.34 6.04498 124.583 6.04498H127.747C127.915 6.04498 128.064 6.11031 128.195 6.24098C128.325 6.35298 128.391 6.49298 128.391 6.66098C128.391 6.75431 128.372 6.83831 128.335 6.91298L123.043 19.905C122.968 20.0916 122.856 20.2596 122.707 20.409C122.576 20.5396 122.361 20.605 122.063 20.605H119.095ZM136.585 20.885C134.382 20.885 132.627 20.2876 131.321 19.093C130.014 17.8983 129.333 16.125 129.277 13.773C129.277 13.6423 129.277 13.4743 129.277 13.269C129.277 13.0636 129.277 12.905 129.277 12.793C129.333 11.3183 129.659 10.0583 130.257 9.01298C130.873 7.94898 131.713 7.14631 132.777 6.60498C133.859 6.04498 135.119 5.76498 136.557 5.76498C138.199 5.76498 139.553 6.09165 140.617 6.74498C141.699 7.39831 142.511 8.28498 143.053 9.40498C143.594 10.525 143.865 11.8036 143.865 13.241V13.913C143.865 14.1183 143.79 14.2863 143.641 14.417C143.51 14.5476 143.351 14.613 143.165 14.613H134.205C134.205 14.6316 134.205 14.6596 134.205 14.697C134.205 14.7343 134.205 14.7716 134.205 14.809C134.223 15.3503 134.317 15.845 134.485 16.293C134.653 16.741 134.914 17.0956 135.269 17.357C135.623 17.6183 136.053 17.749 136.557 17.749C136.93 17.749 137.238 17.693 137.481 17.581C137.742 17.4503 137.957 17.3103 138.125 17.161C138.293 16.993 138.423 16.853 138.517 16.741C138.685 16.5543 138.815 16.4423 138.909 16.405C139.021 16.349 139.189 16.321 139.413 16.321H142.885C143.071 16.321 143.221 16.377 143.333 16.489C143.463 16.5823 143.519 16.7223 143.501 16.909C143.482 17.2263 143.323 17.609 143.025 18.057C142.726 18.505 142.287 18.953 141.709 19.401C141.149 19.8303 140.439 20.185 139.581 20.465C138.722 20.745 137.723 20.885 136.585 20.885ZM134.205 11.841H138.937V11.785C138.937 11.1876 138.843 10.665 138.657 10.217C138.489 9.76898 138.218 9.42365 137.845 9.18098C137.49 8.93831 137.061 8.81698 136.557 8.81698C136.053 8.81698 135.623 8.93831 135.269 9.18098C134.933 9.42365 134.671 9.76898 134.485 10.217C134.298 10.665 134.205 11.1876 134.205 11.785V11.841ZM146.894 20.605C146.689 20.605 146.521 20.5396 146.39 20.409C146.259 20.2783 146.194 20.1103 146.194 19.905V16.349C146.194 16.1623 146.259 16.0036 146.39 15.873C146.521 15.7236 146.689 15.649 146.894 15.649H150.422C150.627 15.649 150.795 15.7236 150.926 15.873C151.075 16.0036 151.15 16.1623 151.15 16.349V19.905C151.15 20.1103 151.075 20.2783 150.926 20.409C150.795 20.5396 150.627 20.605 150.422 20.605H146.894ZM154.836 20.605C154.63 20.605 154.462 20.5396 154.332 20.409C154.201 20.2783 154.136 20.1103 154.136 19.905V6.74498C154.136 6.53965 154.201 6.37165 154.332 6.24098C154.462 6.11031 154.63 6.04498 154.836 6.04498H158.14C158.326 6.04498 158.485 6.11031 158.616 6.24098C158.765 6.37165 158.84 6.53965 158.84 6.74498V19.905C158.84 20.1103 158.765 20.2783 158.616 20.409C158.485 20.5396 158.326 20.605 158.14 20.605H154.836ZM154.808 3.94498C154.602 3.94498 154.434 3.87965 154.304 3.74898C154.173 3.61831 154.108 3.45031 154.108 3.24498V0.752979C154.108 0.547646 154.173 0.379646 154.304 0.248979C154.434 0.0996463 154.602 0.0249801 154.808 0.0249801H158.14C158.345 0.0249801 158.513 0.0996463 158.644 0.248979C158.793 0.379646 158.868 0.547646 158.868 0.752979V3.24498C158.868 3.45031 158.793 3.61831 158.644 3.74898C158.513 3.87965 158.345 3.94498 158.14 3.94498H154.808ZM168.989 20.885C167.421 20.885 166.096 20.633 165.013 20.129C163.949 19.625 163.128 18.9063 162.549 17.973C161.989 17.021 161.672 15.8916 161.597 14.585C161.578 14.2116 161.569 13.7916 161.569 13.325C161.569 12.8396 161.578 12.4196 161.597 12.065C161.672 10.7396 162.008 9.61031 162.605 8.67698C163.202 7.74365 164.033 7.02498 165.097 6.52098C166.18 6.01698 167.477 5.76498 168.989 5.76498C170.52 5.76498 171.817 6.01698 172.881 6.52098C173.964 7.02498 174.804 7.74365 175.401 8.67698C175.998 9.61031 176.334 10.7396 176.409 12.065C176.428 12.4196 176.437 12.8396 176.437 13.325C176.437 13.7916 176.428 14.2116 176.409 14.585C176.334 15.8916 176.008 17.021 175.429 17.973C174.869 18.9063 174.048 19.625 172.965 20.129C171.901 20.633 170.576 20.885 168.989 20.885ZM168.989 17.469C169.829 17.469 170.436 17.217 170.809 16.713C171.201 16.209 171.425 15.453 171.481 14.445C171.5 14.165 171.509 13.7916 171.509 13.325C171.509 12.8583 171.5 12.485 171.481 12.205C171.425 11.2156 171.201 10.469 170.809 9.96498C170.436 9.44231 169.829 9.18098 168.989 9.18098C168.168 9.18098 167.561 9.44231 167.169 9.96498C166.777 10.469 166.562 11.2156 166.525 12.205C166.506 12.485 166.497 12.8583 166.497 13.325C166.497 13.7916 166.506 14.165 166.525 14.445C166.562 15.453 166.777 16.209 167.169 16.713C167.561 17.217 168.168 17.469 168.989 17.469Z" fill="white"/>
</svg>
